<svg width="23" height="27" viewBox="0 0 23 27" fill="none" xmlns="http://www.w3.org/2000/svg">
<path fill-rule="evenodd" clip-rule="evenodd" d="M4.46667 6.93333V21C4.46667 23.2091 6.25753 25 8.46667 25H14.0667C16.2758 25 18.0667 23.2091 18.0667 21V6.93333H20.0667V21C20.0667 24.3137 17.3804 27 14.0667 27H8.46667C5.15296 27 2.46667 24.3137 2.46667 21V6.93333H4.46667Z" fill="#FF3434"/>
<path fill-rule="evenodd" clip-rule="evenodd" d="M22.1 5.76668H0V3.76668H22.1V5.76668Z" fill="#FF3434"/>
<path fill-rule="evenodd" clip-rule="evenodd" d="M12.7333 2H9.8L9.8 3.2H12.7333V2ZM9.8 0C8.69543 0 7.8 0.895432 7.8 2V5.2H14.7333V2C14.7333 0.895431 13.8379 0 12.7333 0H9.8Z" fill="#FF3434"/>
<path fill-rule="evenodd" clip-rule="evenodd" d="M8.16666 21.6667V10.4H9.16666V21.6667H8.16666ZM13.3667 21.6667V10.4H14.3667V21.6667H13.3667Z" fill="#FF3434"/>
</svg>
