<svg width="462" height="462" viewBox="0 0 462 462" fill="none" xmlns="http://www.w3.org/2000/svg">
<rect width="462" height="462" fill="#17171A"/>
<path d="M62.523 194.925H95.9214V285H118.72V194.925H152.118V175.909H62.523V194.925ZM178.645 286.545C190.737 286.545 198.567 281.271 202.562 273.654H203.201V285H224.721V229.815C224.721 210.32 208.208 202.116 189.991 202.116C170.389 202.116 157.498 211.491 154.355 226.406L175.343 228.111C176.887 222.678 181.735 218.683 189.884 218.683C197.608 218.683 202.029 222.571 202.029 229.283V229.602C202.029 234.876 196.436 235.568 182.214 236.953C166.021 238.445 151.479 243.878 151.479 262.148C151.479 278.342 163.038 286.545 178.645 286.545ZM185.144 270.884C178.166 270.884 173.159 267.635 173.159 261.403C173.159 255.011 178.432 251.868 186.422 250.749C191.376 250.057 199.473 248.885 202.189 247.074V255.756C202.189 264.332 195.105 270.884 185.144 270.884ZM310.401 226.513C308.377 211.438 296.232 202.116 275.565 202.116C254.631 202.116 240.834 211.811 240.888 227.578C240.834 239.83 248.558 247.766 264.538 250.962L278.707 253.786C285.845 255.224 289.094 257.834 289.201 261.935C289.094 266.783 283.821 270.245 275.884 270.245C267.788 270.245 262.408 266.783 261.023 260.124L238.704 261.296C240.834 276.957 254.151 286.598 275.831 286.598C297.031 286.598 312.212 275.785 312.266 259.645C312.212 247.82 304.489 240.735 288.615 237.486L273.807 234.503C266.19 232.852 263.366 230.241 263.42 226.3C263.366 221.399 268.906 218.203 275.937 218.203C283.821 218.203 288.508 222.518 289.627 227.791L310.401 226.513ZM326.554 285H349.246V259.006L355.372 252.028L377.691 285H404.271L372.364 238.604L402.726 203.182H376.679L350.471 234.237H349.246V175.909H326.554V285Z" fill="white"/>
</svg>
